<?xml version="1.0" standalone="no"?>
<!DOCTYPE svg PUBLIC "-//W3C//DTD SVG 1.1//EN"
"http://www.w3.org/Graphics/SVG/1.1/DTD/svg11.dtd">

<svg width="596" height="567" view_box="0 0 596 567"
xmlns="http://www.w3.org/2000/svg"
xmlns:link="http://www.w3.org/1999/xlink">\n\n<desc>Généré par Mocodo 2.3.7 le Sat, 08 Dec 2018 07:25:11</desc>

<rect id="frame" x="0" y="0" width="596" height="567" fill="#f7f7f7" stroke="none" stroke-width="0"/>

<!-- Association Poster -->
<line x1="56" y1="507" x2="200" y2="507" stroke="#d6604d" stroke-width="2"/>
<text x="106" y="524.0" fill="#2166ac" font-family="Verdana" font-size="12">1,1</text>
<line x1="352" y1="507" x2="200" y2="507" stroke="#d6604d" stroke-width="2"/>
<text x="274" y="524.0" fill="#2166ac" font-family="Verdana" font-size="12">0,N</text>
<g id="association-Poster">
	<path d="M 213 482 a 14 14 90 0 1 14 14 V 507 h -54 V 496 a 14 14 90 0 1 14 -14" fill="#f4a582" stroke="#f4a582" stroke-width="0"/>
	<path d="M 227 507.0 v 11 a 14 14 90 0 1 -14 14 H 187 a 14 14 90 0 1 -14 -14 V 507.0 H 54" fill="#fddbc7" stroke="#fddbc7" stroke-width="0"/>
	<rect x="173" y="482" width="54" height="50" fill="none" rx="14" stroke="#d6604d" stroke-width="2"/>
	<line x1="173" y1="507" x2="227" y2="507" stroke="#d6604d" stroke-width="1"/>
	<text x="180" y="499.7" fill="#000000" font-family="Verdana" font-size="12">Poster</text>
</g>

<!-- Association Participer -->
<line x1="352" y1="128" x2="200" y2="128" stroke="#d6604d" stroke-width="2"/>
<text x="278" y="145.0" fill="#2166ac" font-family="Verdana" font-size="12">0,N</text>
<line x1="56" y1="128" x2="200" y2="128" stroke="#d6604d" stroke-width="2"/>
<text x="107" y="145.0" fill="#2166ac" font-family="Verdana" font-size="12">0,N</text>
<g id="association-Participer">
	<path d="M 233 94 a 14 14 90 0 1 14 14 V 119 h -94 V 108 a 14 14 90 0 1 14 -14" fill="#f4a582" stroke="#f4a582" stroke-width="0"/>
	<path d="M 247 119.0 v 29 a 14 14 90 0 1 -14 14 H 167 a 14 14 90 0 1 -14 -14 V 119.0 H 94" fill="#fddbc7" stroke="#fddbc7" stroke-width="0"/>
	<rect x="153" y="94" width="94" height="68" fill="none" rx="14" stroke="#d6604d" stroke-width="2"/>
	<line x1="153" y1="119" x2="247" y2="119" stroke="#d6604d" stroke-width="1"/>
	<text x="171" y="111.7" fill="#000000" font-family="Verdana" font-size="12">Participer</text>
	<text x="160" y="136.8" fill="#000000" font-family="Verdana" font-size="12">commentaire</text>
	<text x="160" y="153.8" fill="#000000" font-family="Verdana" font-size="12">note</text>
</g>

<!-- Association Cotiser -->
<line x1="200" y1="297" x2="352" y2="406" stroke="#d6604d" stroke-width="2"/>
<text x="249" y="325.998051555" fill="#2166ac" font-family="Verdana" font-size="12">1,N</text>
<line x1="509" y1="406" x2="352" y2="406" stroke="#d6604d" stroke-width="2"/>
<text x="420" y="423.0" fill="#2166ac" font-family="Verdana" font-size="12">1,N</text>
<g id="association-Cotiser">
	<path d="M 393 381 a 14 14 90 0 1 14 14 V 406 h -110 V 395 a 14 14 90 0 1 14 -14" fill="#f4a582" stroke="#f4a582" stroke-width="0"/>
	<path d="M 407 406.0 v 11 a 14 14 90 0 1 -14 14 H 311 a 14 14 90 0 1 -14 -14 V 406.0 H 110" fill="#fddbc7" stroke="#fddbc7" stroke-width="0"/>
	<rect x="297" y="381" width="110" height="50" fill="none" rx="14" stroke="#d6604d" stroke-width="2"/>
	<line x1="297" y1="406" x2="407" y2="406" stroke="#d6604d" stroke-width="1"/>
	<text x="330" y="398.7" fill="#000000" font-family="Verdana" font-size="12">Cotiser</text>
	<text x="304" y="423.8" fill="#000000" font-family="Verdana" font-size="12">Date_cotisation</text>
</g>

<!-- Association Commenter -->
<line x1="56" y1="507" x2="56" y2="406" stroke="#d6604d" stroke-width="2"/>
<text x="61.0" y="448" fill="#2166ac" font-family="Verdana" font-size="12">0,N</text>
<line x1="200" y1="297" x2="56" y2="406" stroke="#d6604d" stroke-width="2"/>
<text x="129" y="328.006220163" fill="#2166ac" font-family="Verdana" font-size="12">0,N</text>
<g id="association-Commenter">
	<path d="M 89 381 a 14 14 90 0 1 14 14 V 406 h -94 V 395 a 14 14 90 0 1 14 -14" fill="#f4a582" stroke="#f4a582" stroke-width="0"/>
	<path d="M 103 406.0 v 11 a 14 14 90 0 1 -14 14 H 23 a 14 14 90 0 1 -14 -14 V 406.0 H 94" fill="#fddbc7" stroke="#fddbc7" stroke-width="0"/>
	<rect x="9" y="381" width="94" height="50" fill="none" rx="14" stroke="#d6604d" stroke-width="2"/>
	<line x1="9" y1="406" x2="103" y2="406" stroke="#d6604d" stroke-width="1"/>
	<text x="20" y="398.7" fill="#000000" font-family="Verdana" font-size="12">Commenter</text>
	<text x="16" y="423.8" fill="#000000" font-family="Verdana" font-size="12">commentaire</text>
</g>

<!-- Association Être un responable -->
<line x1="200" y1="297" x2="200" y2="406" stroke="#d6604d" stroke-width="2"/>
<text x="205.0" y="373" fill="#2166ac" font-family="Verdana" font-size="12">0,N</text>
<line x1="352" y1="507" x2="200" y2="406" stroke="#d6604d" stroke-width="2"/>
<text x="275" y="485.016884666" fill="#2166ac" font-family="Verdana" font-size="12">1,1</text>
<g id="association-Être un responable">
	<path d="M 251 381 a 14 14 90 0 1 14 14 V 406 h -130 V 395 a 14 14 90 0 1 14 -14" fill="#f4a582" stroke="#f4a582" stroke-width="0"/>
	<path d="M 265 406.0 v 11 a 14 14 90 0 1 -14 14 H 149 a 14 14 90 0 1 -14 -14 V 406.0 H 130" fill="#fddbc7" stroke="#fddbc7" stroke-width="0"/>
	<rect x="135" y="381" width="130" height="50" fill="none" rx="14" stroke="#d6604d" stroke-width="2"/>
	<line x1="135" y1="406" x2="265" y2="406" stroke="#d6604d" stroke-width="1"/>
	<text x="142" y="398.7" fill="#000000" font-family="Verdana" font-size="12">Être un responable</text>
</g>

<!-- Association Organiser -->
<line x1="352" y1="128" x2="352" y2="297" stroke="#d6604d" stroke-width="2"/>
<text x="357.0" y="264" fill="#2166ac" font-family="Verdana" font-size="12">1,N</text>
<line x1="509" y1="406" x2="352" y2="297" stroke="#d6604d" stroke-width="2"/>
<text x="448.209400187" y="356" fill="#2166ac" font-family="Verdana" font-size="12">0,N</text>
<line x1="200" y1="297" x2="352" y2="297" stroke="#d6604d" stroke-width="2"/>
<text x="249" y="289.0" fill="#2166ac" font-family="Verdana" font-size="12">0,N</text>
<g id="association-Organiser">
	<path d="M 375 272 a 14 14 90 0 1 14 14 V 297 h -74 V 286 a 14 14 90 0 1 14 -14" fill="#f4a582" stroke="#f4a582" stroke-width="0"/>
	<path d="M 389 297.0 v 11 a 14 14 90 0 1 -14 14 H 329 a 14 14 90 0 1 -14 -14 V 297.0 H 74" fill="#fddbc7" stroke="#fddbc7" stroke-width="0"/>
	<rect x="315" y="272" width="74" height="50" fill="none" rx="14" stroke="#d6604d" stroke-width="2"/>
	<line x1="315" y1="297" x2="389" y2="297" stroke="#d6604d" stroke-width="1"/>
	<text x="322" y="289.7" fill="#000000" font-family="Verdana" font-size="12">Organiser</text>
</g>

<!-- Association Gérer -->
<line x1="509" y1="406" x2="509" y2="507" stroke="#d6604d" stroke-width="2"/>
<text x="514.0" y="465" fill="#2166ac" font-family="Verdana" font-size="12">1,N</text>
<line x1="352" y1="507" x2="509" y2="507" stroke="#d6604d" stroke-width="2"/>
<text x="408" y="524.0" fill="#2166ac" font-family="Verdana" font-size="12">1,1</text>
<g id="association-Gérer">
	<path d="M 520 482 a 14 14 90 0 1 14 14 V 507 h -50 V 496 a 14 14 90 0 1 14 -14" fill="#f4a582" stroke="#f4a582" stroke-width="0"/>
	<path d="M 534 507.0 v 11 a 14 14 90 0 1 -14 14 H 498 a 14 14 90 0 1 -14 -14 V 507.0 H 50" fill="#fddbc7" stroke="#fddbc7" stroke-width="0"/>
	<rect x="484" y="482" width="50" height="50" fill="none" rx="14" stroke="#d6604d" stroke-width="2"/>
	<line x1="484" y1="507" x2="534" y2="507" stroke="#d6604d" stroke-width="1"/>
	<text x="491" y="499.7" fill="#000000" font-family="Verdana" font-size="12">Gérer</text>
</g>

<!-- Association Être un1 -->
<line x1="56" y1="128" x2="56" y2="297" stroke="#d6604d" stroke-width="2"/>
<text x="61.0" y="187" fill="#2166ac" font-family="Verdana" font-size="12">0,1</text>
<line x1="200" y1="297" x2="56" y2="297" stroke="#d6604d" stroke-width="2"/>
<text x="130" y="289.0" fill="#2166ac" font-family="Verdana" font-size="12">1,1</text>
<g id="association-Être un1">
	<path d="M 72 272 a 14 14 90 0 1 14 14 V 297 h -60 V 286 a 14 14 90 0 1 14 -14" fill="#f4a582" stroke="#f4a582" stroke-width="0"/>
	<path d="M 86 297.0 v 11 a 14 14 90 0 1 -14 14 H 40 a 14 14 90 0 1 -14 -14 V 297.0 H 60" fill="#fddbc7" stroke="#fddbc7" stroke-width="0"/>
	<rect x="26" y="272" width="60" height="50" fill="none" rx="14" stroke="#d6604d" stroke-width="2"/>
	<line x1="26" y1="297" x2="86" y2="297" stroke="#d6604d" stroke-width="1"/>
	<text x="33" y="289.7" fill="#000000" font-family="Verdana" font-size="12">Être un</text>
</g>

<!-- Association Financer -->
<line x1="509" y1="128" x2="509" y2="297" stroke="#d6604d" stroke-width="2"/>
<text x="514.0" y="187" fill="#2166ac" font-family="Verdana" font-size="12">0,N</text>
<line x1="509" y1="406" x2="509" y2="297" stroke="#d6604d" stroke-width="2"/>
<text x="514.0" y="356" fill="#2166ac" font-family="Verdana" font-size="12">0,N</text>
<g id="association-Financer">
	<path d="M 528 272 a 14 14 90 0 1 14 14 V 297 h -66 V 286 a 14 14 90 0 1 14 -14" fill="#f4a582" stroke="#f4a582" stroke-width="0"/>
	<path d="M 542 297.0 v 11 a 14 14 90 0 1 -14 14 H 490 a 14 14 90 0 1 -14 -14 V 297.0 H 66" fill="#fddbc7" stroke="#fddbc7" stroke-width="0"/>
	<rect x="476" y="272" width="66" height="50" fill="none" rx="14" stroke="#d6604d" stroke-width="2"/>
	<line x1="476" y1="297" x2="542" y2="297" stroke="#d6604d" stroke-width="1"/>
	<text x="483" y="289.7" fill="#000000" font-family="Verdana" font-size="12">Financer</text>
	<text x="483" y="314.8" fill="#000000" font-family="Verdana" font-size="12">Somme</text>
</g>

<!-- Entity Associations -->
<g id="entity-Associations">
	<g id="frame-Associations">
		<rect x="447" y="364" width="124" height="25" fill="#92c5de" stroke="#92c5de" stroke-width="0"/>
		<rect x="447" y="389.0" width="124" height="59" fill="#d1e5f0" stroke="#d1e5f0" stroke-width="0"/>
		<rect x="447" y="364" width="124" height="84" fill="none" stroke="#4393c3" stroke-width="2"/>
		<line x1="447" y1="389" x2="571" y2="389" stroke="#4393c3" stroke-width="1"/>
	</g>
	<text x="471" y="381.7" fill="#000000" font-family="Verdana" font-size="12">Associations</text>
	<text x="452" y="406.8" fill="#000000" font-family="Verdana" font-size="12">Nom_asso</text>
	<line x1="452" y1="409" x2="516" y2="409" stroke="#000000" stroke-width="1"/>
	<text x="452" y="423.8" fill="#000000" font-family="Verdana" font-size="12">objectif</text>
	<text x="452" y="440.8" fill="#000000" font-family="Verdana" font-size="12">montant cotisation</text>
</g>

<!-- Entity Personnes -->
<g id="entity-Personnes">
	<g id="frame-Personnes">
		<rect x="10" y="86" width="92" height="25" fill="#92c5de" stroke="#92c5de" stroke-width="0"/>
		<rect x="10" y="111.0" width="92" height="59" fill="#d1e5f0" stroke="#d1e5f0" stroke-width="0"/>
		<rect x="10" y="86" width="92" height="84" fill="none" stroke="#4393c3" stroke-width="2"/>
		<line x1="10" y1="111" x2="102" y2="111" stroke="#4393c3" stroke-width="1"/>
	</g>
	<text x="24" y="103.7" fill="#000000" font-family="Verdana" font-size="12">Personnes</text>
	<text x="15" y="128.8" fill="#000000" font-family="Verdana" font-size="12">id_pers</text>
	<line x1="15" y1="131" x2="60" y2="131" stroke="#000000" stroke-width="1"/>
	<text x="15" y="145.8" fill="#000000" font-family="Verdana" font-size="12">nom_pers</text>
	<text x="15" y="162.8" fill="#000000" font-family="Verdana" font-size="12">prénom_pers</text>
</g>

<!-- Entity Adhérents -->
<g id="entity-Adhérents">
	<g id="frame-Adhérents">
		<rect x="156" y="238" width="88" height="25" fill="#92c5de" stroke="#92c5de" stroke-width="0"/>
		<rect x="156" y="263.0" width="88" height="93" fill="#d1e5f0" stroke="#d1e5f0" stroke-width="0"/>
		<rect x="156" y="238" width="88" height="118" fill="none" stroke="#4393c3" stroke-width="2"/>
		<line x1="156" y1="263" x2="244" y2="263" stroke="#4393c3" stroke-width="1"/>
	</g>
	<text x="169" y="255.7" fill="#000000" font-family="Verdana" font-size="12">Adhérents</text>
	<text x="161" y="280.7" fill="#000000" font-family="Verdana" font-size="12">login</text>
	<line x1="161" y1="283" x2="191" y2="283" stroke="#000000" stroke-width="1"/>
	<text x="161" y="297.8" fill="#000000" font-family="Verdana" font-size="12">adresse mail</text>
	<text x="161" y="314.8" fill="#000000" font-family="Verdana" font-size="12">filière</text>
	<text x="161" y="331.8" fill="#000000" font-family="Verdana" font-size="12">promotion</text>
	<text x="161" y="348.8" fill="#000000" font-family="Verdana" font-size="12">mdp</text>
</g>

<!-- Entity Sources de financement -->
<g id="entity-Sources de financement">
	<g id="frame-Sources de financement">
		<rect x="431" y="86" width="156" height="25" fill="#92c5de" stroke="#92c5de" stroke-width="0"/>
		<rect x="431" y="111.0" width="156" height="59" fill="#d1e5f0" stroke="#d1e5f0" stroke-width="0"/>
		<rect x="431" y="86" width="156" height="84" fill="none" stroke="#4393c3" stroke-width="2"/>
		<line x1="431" y1="111" x2="587" y2="111" stroke="#4393c3" stroke-width="1"/>
	</g>
	<text x="436" y="103.7" fill="#000000" font-family="Verdana" font-size="12">Sources de financement</text>
	<text x="436" y="128.8" fill="#000000" font-family="Verdana" font-size="12">id_fin</text>
	<line x1="436" y1="131" x2="471" y2="131" stroke="#000000" stroke-width="1"/>
	<text x="436" y="145.8" fill="#000000" font-family="Verdana" font-size="12">type</text>
	<text x="436" y="162.8" fill="#000000" font-family="Verdana" font-size="12">nom_fin</text>
</g>

<!-- Entity Événements -->
<g id="entity-Événements">
	<g id="frame-Événements">
		<rect x="305" y="9" width="94" height="25" fill="#92c5de" stroke="#92c5de" stroke-width="0"/>
		<rect x="305" y="34.0" width="94" height="213" fill="#d1e5f0" stroke="#d1e5f0" stroke-width="0"/>
		<rect x="305" y="9" width="94" height="238" fill="none" stroke="#4393c3" stroke-width="2"/>
		<line x1="305" y1="34" x2="399" y2="34" stroke="#4393c3" stroke-width="1"/>
	</g>
	<text x="314" y="26.7" fill="#000000" font-family="Verdana" font-size="12">Événements</text>
	<text x="310" y="51.7" fill="#000000" font-family="Verdana" font-size="12">id_event</text>
	<line x1="310" y1="54" x2="363" y2="54" stroke="#000000" stroke-width="1"/>
	<text x="310" y="68.7" fill="#000000" font-family="Verdana" font-size="12">titre_event</text>
	<text x="310" y="85.7" fill="#000000" font-family="Verdana" font-size="12">description</text>
	<text x="310" y="102.7" fill="#000000" font-family="Verdana" font-size="12">date création</text>
	<text x="310" y="119.7" fill="#000000" font-family="Verdana" font-size="12">coût</text>
	<text x="310" y="136.8" fill="#000000" font-family="Verdana" font-size="12">lieu</text>
	<text x="310" y="153.8" fill="#000000" font-family="Verdana" font-size="12">nb place</text>
	<text x="310" y="170.8" fill="#000000" font-family="Verdana" font-size="12">date début</text>
	<text x="310" y="187.8" fill="#000000" font-family="Verdana" font-size="12">date fin</text>
	<text x="310" y="204.8" fill="#000000" font-family="Verdana" font-size="12">tarif exté</text>
	<text x="310" y="221.8" fill="#000000" font-family="Verdana" font-size="12">tarif adhérent</text>
	<text x="310" y="238.8" fill="#000000" font-family="Verdana" font-size="12">fréquence</text>
</g>

<!-- Entity Responsables -->
<g id="entity-Responsables">
	<g id="frame-Responsables">
		<rect x="301" y="473" width="102" height="25" fill="#92c5de" stroke="#92c5de" stroke-width="0"/>
		<rect x="301" y="498.0" width="102" height="43" fill="#d1e5f0" stroke="#d1e5f0" stroke-width="0"/>
		<rect x="301" y="473" width="102" height="68" fill="none" stroke="#4393c3" stroke-width="2"/>
		<line x1="301" y1="498" x2="403" y2="498" stroke="#4393c3" stroke-width="1"/>
	</g>
	<text x="310" y="490.7" fill="#000000" font-family="Verdana" font-size="12">Responsables</text>
	<text x="306" y="515.8" fill="#000000" font-family="Verdana" font-size="12">id_responsable</text>
	<line x1="306" y1="518" x2="398" y2="518" stroke="#000000" stroke-width="1"/>
	<text x="306" y="532.8" fill="#000000" font-family="Verdana" font-size="12">Fonction</text>
</g>

<!-- Entity News -->
<g id="entity-News">
	<g id="frame-News">
		<rect x="11" y="456" width="90" height="25" fill="#92c5de" stroke="#92c5de" stroke-width="0"/>
		<rect x="11" y="481.0" width="90" height="77" fill="#d1e5f0" stroke="#d1e5f0" stroke-width="0"/>
		<rect x="11" y="456" width="90" height="102" fill="none" stroke="#4393c3" stroke-width="2"/>
		<line x1="11" y1="481" x2="101" y2="481" stroke="#4393c3" stroke-width="1"/>
	</g>
	<text x="39" y="473.7" fill="#000000" font-family="Verdana" font-size="12">News</text>
	<text x="16" y="498.7" fill="#000000" font-family="Verdana" font-size="12">id_news</text>
	<line x1="16" y1="501" x2="66" y2="501" stroke="#000000" stroke-width="1"/>
	<text x="16" y="515.8" fill="#000000" font-family="Verdana" font-size="12">titre_news</text>
	<text x="16" y="532.8" fill="#000000" font-family="Verdana" font-size="12">texte</text>
	<text x="16" y="549.8" fill="#000000" font-family="Verdana" font-size="12">date création</text>
</g>
</svg>